<svg width="32" height="32" viewBox="0 0 32 32" fill="none" xmlns="http://www.w3.org/2000/svg">
<path d="M21.0001 2C18.6139 2.00232 16.3261 2.95127 14.6387 4.6386C12.9514 6.32592 12.0024 8.61376 12.0001 11C12.001 11.3938 12.0274 11.7871 12.0789 12.1775L3.39013 24.0275C3.10574 24.4121 2.96931 24.8863 3.00581 25.3633C3.0423 25.8402 3.24928 26.2881 3.58888 26.625L5.37513 28.4112C5.71202 28.7509 6.15991 28.9578 6.63687 28.9943C7.11383 29.0308 7.58799 28.8944 7.97263 28.61L19.8239 19.9188C20.2138 19.9711 20.6067 19.9982 21.0001 20C23.3871 20 25.6763 19.0518 27.3641 17.364C29.0519 15.6761 30.0001 13.3869 30.0001 11C30.0001 8.61305 29.0519 6.32387 27.3641 4.63604C25.6763 2.94821 23.3871 2 21.0001 2ZM28.0001 11C28.0019 12.511 27.5123 13.9816 26.6051 15.19L16.8114 5.395C17.8517 4.61799 19.0877 4.14566 20.3811 4.03084C21.6745 3.91602 22.9744 4.16322 24.1354 4.74481C25.2964 5.3264 26.2727 6.21945 26.9552 7.32411C27.6377 8.42877 27.9995 9.7015 28.0001 11ZM6.79013 27L5.00013 25.21L12.7676 14.625C13.6778 16.6798 15.3203 18.3223 17.3751 19.2325L6.79013 27ZM14.0001 11C13.9981 9.48934 14.4878 8.01907 15.3951 6.81125L25.1876 16.6038C24.1474 17.3803 22.9116 17.8524 21.6185 17.967C20.3254 18.0817 19.0259 17.8345 17.8652 17.2531C16.7044 16.6718 15.7283 15.779 15.0457 14.6748C14.3632 13.5705 14.0012 12.2982 14.0001 11ZM13.7064 18.2925C13.8938 18.48 13.999 18.7343 13.999 18.9994C13.999 19.2645 13.8938 19.5187 13.7064 19.7062L12.7064 20.7062C12.6144 20.803 12.5041 20.8804 12.3818 20.9338C12.2594 20.9873 12.1277 21.0157 11.9942 21.0174C11.8607 21.0191 11.7283 20.9941 11.6046 20.9438C11.481 20.8935 11.3687 20.819 11.2743 20.7246C11.1799 20.6302 11.1054 20.5179 11.0551 20.3942C11.0048 20.2706 10.9798 20.1381 10.9815 20.0047C10.9832 19.8712 11.0116 19.7394 11.065 19.6171C11.1185 19.4948 11.1959 19.3844 11.2926 19.2925L12.2926 18.2925C12.3854 18.1993 12.4957 18.1252 12.6172 18.0747C12.7387 18.0242 12.8689 17.9981 13.0005 17.998C13.1321 17.9978 13.2624 18.0237 13.3839 18.074C13.5055 18.1243 13.6159 18.1982 13.7089 18.2913L13.7064 18.2925Z" fill="#9B9B9B"/>
</svg>
