<svg width="32" height="32" viewBox="0 0 32 32" fill="none" xmlns="http://www.w3.org/2000/svg">
<path d="M26.615 2.21125C26.4952 2.11791 26.3557 2.05308 26.2072 2.02168C26.0586 1.99027 25.9048 1.99312 25.7575 2.03L9.75751 6.03C9.54117 6.08408 9.34911 6.20891 9.21186 6.38467C9.07461 6.56042 9.00004 6.77701 9.00001 7V20.76C8.1658 20.2026 7.16925 19.94 6.16869 20.0139C5.16813 20.0877 4.22095 20.4939 3.47764 21.1677C2.73433 21.8415 2.23752 22.7445 2.06614 23.733C1.89477 24.7215 2.05866 25.739 2.53177 26.6237C3.00489 27.5084 3.76009 28.2097 4.6774 28.616C5.5947 29.0224 6.6215 29.1105 7.59464 28.8665C8.56779 28.6224 9.43147 28.0602 10.0485 27.269C10.6655 26.4779 11.0004 25.5033 11 24.5V7.78125L25 4.28125V16.76C24.1658 16.2026 23.1692 15.94 22.1687 16.0139C21.1681 16.0877 20.221 16.4939 19.4776 17.1677C18.7343 17.8415 18.2375 18.7445 18.0661 19.733C17.8948 20.7215 18.0587 21.739 18.5318 22.6237C19.0049 23.5084 19.7601 24.2097 20.6774 24.616C21.5947 25.0224 22.6215 25.1105 23.5946 24.8665C24.5678 24.6224 25.4315 24.0602 26.0485 23.269C26.6655 22.4779 27.0004 21.5033 27 20.5V3C27 2.84791 26.9654 2.69781 26.8987 2.56113C26.8319 2.42445 26.7349 2.30479 26.615 2.21125ZM6.50001 27C6.00555 27 5.5222 26.8534 5.11108 26.5787C4.69996 26.304 4.37953 25.9135 4.19031 25.4567C4.00109 24.9999 3.95158 24.4972 4.04804 24.0123C4.14451 23.5273 4.38261 23.0819 4.73224 22.7322C5.08187 22.3826 5.52733 22.1445 6.01228 22.048C6.49723 21.9516 6.9999 22.0011 7.45671 22.1903C7.91353 22.3795 8.30398 22.7 8.57868 23.1111C8.85338 23.5222 9.00001 24.0055 9.00001 24.5C9.00001 25.163 8.73661 25.7989 8.26777 26.2678C7.79893 26.7366 7.16305 27 6.50001 27ZM22.5 23C22.0056 23 21.5222 22.8534 21.1111 22.5787C20.7 22.304 20.3795 21.9135 20.1903 21.4567C20.0011 20.9999 19.9516 20.4972 20.048 20.0123C20.1445 19.5273 20.3826 19.0819 20.7322 18.7322C21.0819 18.3826 21.5273 18.1445 22.0123 18.048C22.4972 17.9516 22.9999 18.0011 23.4567 18.1903C23.9135 18.3795 24.304 18.7 24.5787 19.1111C24.8534 19.5222 25 20.0055 25 20.5C25 21.163 24.7366 21.7989 24.2678 22.2678C23.7989 22.7366 23.163 23 22.5 23Z" fill="#9B9B9B"/>
</svg>
