<svg width="100" height="100" viewBox="0 0 100 100" fill="none" xmlns="http://www.w3.org/2000/svg">
<rect width="100" height="100" rx="20" fill="black"/>
<path d="M23.8095 32.0952H27.619V35.9048H23.8095V32.0952ZM27.619 28.2857H31.4286V32.0952H27.619V28.2857ZM31.4286 28.2857H35.2381V32.0952H31.4286V28.2857ZM35.2381 28.2857H39.0476V32.0952H35.2381V28.2857ZM42.8571 28.2857H46.6667V32.0952H42.8571V28.2857ZM54.2857 28.2857H58.0952V32.0952H54.2857V28.2857ZM58.0952 28.2857H61.9048V32.0952H58.0952V28.2857ZM61.9048 28.2857H65.7143V32.0952H61.9048V28.2857ZM65.7143 28.2857H69.5238V32.0952H65.7143V28.2857ZM69.5238 32.0952H73.3333V35.9048H69.5238V32.0952ZM69.5238 35.9048H73.3333V39.7143H69.5238V35.9048ZM69.5238 39.7143H73.3333V43.5238H69.5238V39.7143ZM65.7143 32.0952H69.5238V35.9048H65.7143V32.0952ZM65.7143 35.9048H69.5238V39.7143H65.7143V35.9048ZM65.7143 39.7143H69.5238V43.5238H65.7143V39.7143ZM65.7143 43.5238H69.5238V47.3333H65.7143V43.5238ZM61.9048 47.3333H65.7143V51.1429H61.9048V47.3333ZM58.0952 47.3333H61.9048V51.1429H58.0952V47.3333ZM54.2857 47.3333H58.0952V51.1429H54.2857V47.3333ZM65.7143 51.1429H69.5238V54.9524H65.7143V51.1429ZM69.5238 51.1429H73.3333V54.9524H69.5238V51.1429ZM69.5238 54.9524H73.3333V58.7619H69.5238V54.9524ZM69.5238 58.7619H73.3333V62.5714H69.5238V58.7619ZM65.7143 58.7619H69.5238V62.5714H65.7143V58.7619ZM65.7143 54.9524H69.5238V58.7619H65.7143V54.9524ZM65.7143 62.5714H69.5238V66.381H65.7143V62.5714ZM69.5238 62.5714H73.3333V66.381H69.5238V62.5714ZM61.9048 66.381H65.7143V70.1905H61.9048V66.381ZM58.0952 66.381H61.9048V70.1905H58.0952V66.381ZM54.2857 66.381H58.0952V70.1905H54.2857V66.381ZM50.4762 66.381H54.2857V70.1905H50.4762V66.381ZM54.2857 70.1905H58.0952V74H54.2857V70.1905ZM50.4762 70.1905H54.2857V74H50.4762V70.1905ZM46.6667 32.0952H50.4762V35.9048H46.6667V32.0952ZM50.4762 32.0952H54.2857V35.9048H50.4762V32.0952ZM50.4762 35.9048H54.2857V39.7143H50.4762V35.9048ZM50.4762 39.7143H54.2857V43.5238H50.4762V39.7143ZM50.4762 43.5238H54.2857V47.3333H50.4762V43.5238ZM46.6667 43.5238H50.4762V47.3333H46.6667V43.5238ZM46.6667 39.7143H50.4762V43.5238H46.6667V39.7143ZM46.6667 35.9048H50.4762V39.7143H46.6667V35.9048ZM46.6667 47.3333H50.4762V51.1429H46.6667V47.3333ZM50.4762 47.3333H54.2857V51.1429H50.4762V47.3333ZM50.4762 51.1429H54.2857V54.9524H50.4762V51.1429ZM50.4762 54.9524H54.2857V58.7619H50.4762V54.9524ZM46.6667 51.1429H50.4762V54.9524H46.6667V51.1429ZM46.6667 54.9524H50.4762V58.7619H46.6667V54.9524ZM46.6667 58.7619H50.4762V62.5714H46.6667V58.7619ZM39.0476 32.0952H42.8571V35.9048H39.0476V32.0952ZM39.0476 35.9048H42.8571V39.7143H39.0476V35.9048ZM39.0476 39.7143H42.8571V43.5238H39.0476V39.7143ZM39.0476 43.5238H42.8571V47.3333H39.0476V43.5238ZM39.0476 47.3333H42.8571V51.1429H39.0476V47.3333ZM39.0476 51.1429H42.8571V54.9524H39.0476V51.1429ZM39.0476 58.7619H42.8571V62.5714H39.0476V58.7619ZM35.2381 43.5238H39.0476V47.3333H35.2381V43.5238ZM31.4286 43.5238H35.2381V47.3333H31.4286V43.5238ZM39.0476 54.9524H42.8571V58.7619H39.0476V54.9524ZM35.2381 51.1429H39.0476V54.9524H35.2381V51.1429ZM31.4286 51.1429H35.2381V54.9524H31.4286V51.1429ZM46.6667 66.381H50.4762V70.1905H46.6667V66.381ZM42.8571 66.381H46.6667V70.1905H42.8571V66.381ZM39.0476 66.381H42.8571V70.1905H39.0476V66.381ZM35.2381 66.381H39.0476V70.1905H35.2381V66.381ZM31.4286 70.1905H35.2381V74H31.4286V70.1905Z" fill="white"/>
</svg>
