<svg width="15" height="15" viewBox="0 0 15 15" fill="none" xmlns="http://www.w3.org/2000/svg">
<path d="M13.411 3.4496L11.5504 1.58894C11.5072 1.54569 11.4558 1.51138 11.3994 1.48797C11.3429 1.46456 11.2824 1.45251 11.2212 1.45251C11.1601 1.45251 11.0996 1.46456 11.0431 1.48797C10.9866 1.51138 10.9353 1.54569 10.8921 1.58894L5.31018 7.17091C5.26699 7.21414 5.23275 7.26546 5.20941 7.32192C5.18606 7.37839 5.17407 7.43891 5.17412 7.50001V9.36067C5.17412 9.48404 5.22312 9.60235 5.31036 9.68959C5.3976 9.77682 5.51591 9.82583 5.63928 9.82583H7.49994C7.56104 9.82588 7.62156 9.81389 7.67802 9.79054C7.73449 9.7672 7.78581 9.73295 7.82904 9.68977L13.411 4.1078C13.4543 4.0646 13.4886 4.0133 13.512 3.95683C13.5354 3.90036 13.5474 3.83983 13.5474 3.7787C13.5474 3.71757 13.5354 3.65704 13.512 3.60057C13.4886 3.5441 13.4543 3.4928 13.411 3.4496ZM7.30748 8.8955H6.10444V7.69247L9.82576 3.97116L11.0288 5.17419L7.30748 8.8955ZM11.6864 4.51657L10.4834 3.31354L11.2212 2.57567L12.4243 3.7787L11.6864 4.51657ZM13.0819 7.50001V12.1517C13.0819 12.3984 12.9839 12.635 12.8094 12.8095C12.6349 12.984 12.3983 13.082 12.1516 13.082H2.8483C2.60156 13.082 2.36493 12.984 2.19046 12.8095C2.01599 12.635 1.91797 12.3984 1.91797 12.1517V2.84837C1.91797 2.60163 2.01599 2.365 2.19046 2.19053C2.36493 2.01606 2.60156 1.91804 2.8483 1.91804H7.49994C7.62331 1.91804 7.74162 1.96705 7.82886 2.05429C7.91609 2.14152 7.9651 2.25984 7.9651 2.38321C7.9651 2.50658 7.91609 2.62489 7.82886 2.71213C7.74162 2.79936 7.62331 2.84837 7.49994 2.84837H2.8483V12.1517H12.1516V7.50001C12.1516 7.37664 12.2006 7.25833 12.2878 7.17109C12.3751 7.08386 12.4934 7.03485 12.6167 7.03485C12.7401 7.03485 12.8584 7.08386 12.9457 7.17109C13.0329 7.25833 13.0819 7.37664 13.0819 7.50001Z" fill="#FFFFFF"/>
</svg>
