<svg width="40" height="40" viewBox="0 0 40 40" fill="none" xmlns="http://www.w3.org/2000/svg">
<path d="M38.2812 17.2875C38.0492 16.9658 37.744 16.704 37.3908 16.5236C37.0376 16.3432 36.6466 16.2494 36.25 16.25H33.75V13.75C33.75 13.087 33.4866 12.4511 33.0178 11.9822C32.5489 11.5134 31.913 11.25 31.25 11.25H20.4172L16.0844 8C15.6509 7.67685 15.125 7.50156 14.5844 7.5H6.25C5.58696 7.5 4.95107 7.76339 4.48223 8.23223C4.01339 8.70107 3.75 9.33696 3.75 10V32.5C3.75 32.8315 3.8817 33.1495 4.11612 33.3839C4.35054 33.6183 4.66848 33.75 5 33.75H32.9844C33.2467 33.75 33.5025 33.6675 33.7153 33.5141C33.9282 33.3607 34.0873 33.1442 34.1703 32.8953L38.6219 19.5406C38.7471 19.1648 38.7815 18.7648 38.7223 18.3731C38.663 17.9815 38.5119 17.6095 38.2812 17.2875ZM14.5844 10L19.25 13.5C19.4664 13.6623 19.7295 13.75 20 13.75H31.25V16.25H10.9016C10.3768 16.25 9.8654 16.415 9.4397 16.7218C9.014 17.0286 8.69563 17.4616 8.52969 17.9594L6.25 24.7969V10H14.5844ZM32.0844 31.25H6.73437L10.9016 18.75H36.25L32.0844 31.25Z" fill="#616161"/>
</svg>
