<svg width="15" height="15" viewBox="0 0 15 15" fill="none" xmlns="http://www.w3.org/2000/svg">
<path d="M10.2912 9.36081C9.98094 9.36071 9.67377 9.42287 9.38793 9.54362C9.10208 9.66437 8.84338 9.84125 8.62712 10.0638L5.94661 8.34094C6.15746 7.80024 6.15746 7.20006 5.94661 6.65937L8.62712 4.93652C9.02975 5.34895 9.57118 5.5972 10.1464 5.63311C10.7217 5.66903 11.2898 5.49007 11.7406 5.13092C12.1914 4.77178 12.4928 4.25803 12.5864 3.68929C12.6799 3.12055 12.5589 2.53733 12.2469 2.05271C11.9349 1.5681 11.454 1.2166 10.8976 1.06638C10.3411 0.916156 9.74869 0.977906 9.23517 1.23966C8.72165 1.50141 8.32361 1.94451 8.11823 2.48306C7.91285 3.02161 7.91476 3.61723 8.12358 4.15446L5.44307 5.87731C5.12029 5.54592 4.70601 5.31833 4.25321 5.22361C3.8004 5.12889 3.32963 5.17135 2.90108 5.34557C2.47253 5.51979 2.10567 5.81785 1.8474 6.20165C1.58913 6.58544 1.45117 7.03754 1.45117 7.50015C1.45117 7.96276 1.58913 8.41486 1.8474 8.79866C2.10567 9.18245 2.47253 9.48051 2.90108 9.65473C3.32963 9.82895 3.8004 9.87142 4.25321 9.7767C4.70601 9.68198 5.12029 9.45438 5.44307 9.12299L8.12358 10.8458C7.94401 11.309 7.91744 11.8175 8.04775 12.2968C8.17807 12.7761 8.45843 13.2012 8.84778 13.5096C9.23713 13.8181 9.71502 13.9938 10.2115 14.011C10.7079 14.0283 11.1968 13.8861 11.6066 13.6054C12.0164 13.3246 12.3255 12.92 12.4888 12.4509C12.652 11.9817 12.6607 11.4726 12.5137 10.9982C12.3667 10.5237 12.0716 10.1088 11.6717 9.81412C11.2717 9.51948 10.788 9.36062 10.2912 9.36081ZM10.2912 1.91818C10.5672 1.91818 10.8371 2.00003 11.0665 2.15337C11.296 2.3067 11.4749 2.52465 11.5805 2.77964C11.6861 3.03464 11.7138 3.31522 11.6599 3.58592C11.6061 3.85662 11.4732 4.10527 11.278 4.30044C11.0828 4.4956 10.8342 4.62851 10.5635 4.68235C10.2928 4.7362 10.0122 4.70856 9.75721 4.60294C9.50222 4.49732 9.28427 4.31846 9.13094 4.08897C8.9776 3.85948 8.89575 3.58968 8.89575 3.31367C8.89575 2.94357 9.04278 2.58862 9.30448 2.32691C9.56619 2.06521 9.92114 1.91818 10.2912 1.91818ZM3.77895 8.89564C3.50295 8.89564 3.23314 8.8138 3.00365 8.66046C2.77417 8.50712 2.5953 8.28918 2.48968 8.03418C2.38406 7.77919 2.35643 7.4986 2.41027 7.2279C2.46412 6.9572 2.59702 6.70855 2.79219 6.51339C2.98735 6.31823 3.236 6.18532 3.5067 6.13147C3.7774 6.07763 4.05799 6.10526 4.31298 6.21088C4.56797 6.31651 4.78592 6.49537 4.93926 6.72486C5.0926 6.95434 5.17444 7.22415 5.17444 7.50015C5.17444 7.87026 5.02742 8.22521 4.76571 8.48691C4.504 8.74862 4.14906 8.89564 3.77895 8.89564ZM10.2912 13.0821C10.0152 13.0821 9.74544 13.0003 9.51595 12.8469C9.28646 12.6936 9.1076 12.4757 9.00198 12.2207C8.89636 11.9657 8.86872 11.6851 8.92257 11.4144C8.97641 11.1437 9.10932 10.895 9.30448 10.6999C9.49965 10.5047 9.7483 10.3718 10.019 10.3179C10.2897 10.2641 10.5703 10.2917 10.8253 10.3974C11.0803 10.503 11.2982 10.6818 11.4516 10.9113C11.6049 11.1408 11.6867 11.4106 11.6867 11.6866C11.6867 12.0567 11.5397 12.4117 11.278 12.6734C11.0163 12.9351 10.6614 13.0821 10.2912 13.0821Z" fill="#FFFFFF"/>
</svg>
