<svg width="6" height="18" viewBox="0 0 6 18" fill="none" xmlns="http://www.w3.org/2000/svg">
<path d="M3.45899 6.5C2.96453 6.5 2.48118 6.64662 2.07006 6.92133C1.65894 7.19603 1.33851 7.58648 1.14929 8.04329C0.960068 8.50011 0.910559 9.00278 1.00702 9.48773C1.10349 9.97268 1.34159 10.4181 1.69122 10.7678C2.04085 11.1174 2.48631 11.3555 2.97126 11.452C3.45621 11.5484 3.95888 11.4989 4.41569 11.3097C4.87251 11.1205 5.26296 10.8001 5.53766 10.3889C5.81236 9.9778 5.95899 9.49446 5.95899 9C5.95899 8.33696 5.69559 7.70108 5.22675 7.23223C4.75791 6.76339 4.12203 6.5 3.45899 6.5ZM3.45899 10.25C3.21176 10.25 2.97008 10.1767 2.76452 10.0393C2.55896 9.90199 2.39875 9.70676 2.30414 9.47836C2.20953 9.24995 2.18477 8.99862 2.233 8.75614C2.28124 8.51366 2.40029 8.29093 2.5751 8.11612C2.74992 7.9413 2.97265 7.82225 3.21512 7.77402C3.4576 7.72579 3.70893 7.75054 3.93734 7.84515C4.16575 7.93976 4.36097 8.09998 4.49832 8.30554C4.63567 8.5111 4.70899 8.75278 4.70899 9C4.70899 9.33152 4.57729 9.64946 4.34287 9.88389C4.10845 10.1183 3.79051 10.25 3.45899 10.25ZM3.45899 5.25C3.95344 5.25 4.43679 5.10338 4.84791 4.82868C5.25903 4.55397 5.57947 4.16353 5.76868 3.70671C5.9579 3.24989 6.00741 2.74723 5.91095 2.26228C5.81449 1.77732 5.57638 1.33187 5.22675 0.982234C4.87712 0.632603 4.43166 0.394501 3.94671 0.298038C3.46176 0.201575 2.95909 0.251083 2.50228 0.440302C2.04546 0.629521 1.65502 0.949953 1.38031 1.36108C1.10561 1.7722 0.958986 2.25555 0.958986 2.75C0.958986 3.41304 1.22238 4.04893 1.69122 4.51777C2.16006 4.98661 2.79594 5.25 3.45899 5.25ZM3.45899 1.5C3.70621 1.5 3.94789 1.57331 4.15345 1.71066C4.35901 1.84802 4.51923 2.04324 4.61384 2.27165C4.70844 2.50005 4.7332 2.75139 4.68497 2.99386C4.63674 3.23634 4.51768 3.45907 4.34287 3.63389C4.16805 3.8087 3.94532 3.92775 3.70285 3.97598C3.46037 4.02421 3.20904 3.99946 2.98063 3.90485C2.75222 3.81024 2.557 3.65003 2.41965 3.44446C2.2823 3.2389 2.20899 2.99723 2.20899 2.75C2.20899 2.41848 2.34068 2.10054 2.5751 1.86612C2.80952 1.6317 3.12747 1.5 3.45899 1.5ZM3.45899 12.75C2.96453 12.75 2.48118 12.8966 2.07006 13.1713C1.65894 13.446 1.33851 13.8365 1.14929 14.2933C0.960068 14.7501 0.910559 15.2528 1.00702 15.7377C1.10349 16.2227 1.34159 16.6681 1.69122 17.0178C2.04085 17.3674 2.48631 17.6055 2.97126 17.702C3.45621 17.7984 3.95888 17.7489 4.41569 17.5597C4.87251 17.3705 5.26296 17.0501 5.53766 16.6389C5.81236 16.2278 5.95899 15.7445 5.95899 15.25C5.95899 14.587 5.69559 13.9511 5.22675 13.4822C4.75791 13.0134 4.12203 12.75 3.45899 12.75ZM3.45899 16.5C3.21176 16.5 2.97008 16.4267 2.76452 16.2893C2.55896 16.152 2.39875 15.9568 2.30414 15.7284C2.20953 15.4999 2.18477 15.2486 2.233 15.0061C2.28124 14.7637 2.40029 14.5409 2.5751 14.3661C2.74992 14.1913 2.97265 14.0723 3.21512 14.024C3.4576 13.9758 3.70893 14.0005 3.93734 14.0952C4.16575 14.1898 4.36097 14.35 4.49832 14.5555C4.63567 14.7611 4.70899 15.0028 4.70899 15.25C4.70899 15.5815 4.57729 15.8995 4.34287 16.1339C4.10845 16.3683 3.79051 16.5 3.45899 16.5Z" fill="#262626"/>
</svg>
