<svg width="15" height="15" viewBox="0 0 15 15" fill="none" xmlns="http://www.w3.org/2000/svg">
<path d="M12.6167 2.84848H10.2909V2.38332C10.2909 2.01321 10.1439 1.65826 9.88219 1.39655C9.62048 1.13485 9.26554 0.987823 8.89543 0.987823H6.10444C5.73434 0.987823 5.37939 1.13485 5.11768 1.39655C4.85598 1.65826 4.70895 2.01321 4.70895 2.38332V2.84848H2.38313C2.25976 2.84848 2.14145 2.89749 2.05421 2.98472C1.96698 3.07196 1.91797 3.19027 1.91797 3.31364C1.91797 3.43701 1.96698 3.55533 2.05421 3.64256C2.14145 3.7298 2.25976 3.77881 2.38313 3.77881H2.8483V12.1518C2.8483 12.3985 2.94631 12.6351 3.12078 12.8096C3.29525 12.9841 3.53189 13.0821 3.77862 13.0821H11.2212C11.468 13.0821 11.7046 12.9841 11.8791 12.8096C12.0536 12.6351 12.1516 12.3985 12.1516 12.1518V3.77881H12.6167C12.7401 3.77881 12.8584 3.7298 12.9457 3.64256C13.0329 3.55533 13.0819 3.43701 13.0819 3.31364C13.0819 3.19027 13.0329 3.07196 12.9457 2.98472C12.8584 2.89749 12.7401 2.84848 12.6167 2.84848ZM5.63928 2.38332C5.63928 2.25995 5.68829 2.14163 5.77552 2.05439C5.86276 1.96716 5.98108 1.91815 6.10444 1.91815H8.89543C9.0188 1.91815 9.13711 1.96716 9.22435 2.05439C9.31158 2.14163 9.36059 2.25995 9.36059 2.38332V2.84848H5.63928V2.38332ZM11.2212 12.1518H3.77862V3.77881H11.2212V12.1518ZM6.56961 6.10463V9.82594C6.56961 9.94931 6.5206 10.0676 6.43336 10.1549C6.34613 10.2421 6.22781 10.2911 6.10444 10.2911C5.98108 10.2911 5.86276 10.2421 5.77552 10.1549C5.68829 10.0676 5.63928 9.94931 5.63928 9.82594V6.10463C5.63928 5.98126 5.68829 5.86294 5.77552 5.77571C5.86276 5.68847 5.98108 5.63946 6.10444 5.63946C6.22781 5.63946 6.34613 5.68847 6.43336 5.77571C6.5206 5.86294 6.56961 5.98126 6.56961 6.10463ZM9.36059 6.10463V9.82594C9.36059 9.94931 9.31158 10.0676 9.22435 10.1549C9.13711 10.2421 9.0188 10.2911 8.89543 10.2911C8.77206 10.2911 8.65374 10.2421 8.56651 10.1549C8.47927 10.0676 8.43026 9.94931 8.43026 9.82594V6.10463C8.43026 5.98126 8.47927 5.86294 8.56651 5.77571C8.65374 5.68847 8.77206 5.63946 8.89543 5.63946C9.0188 5.63946 9.13711 5.68847 9.22435 5.77571C9.31158 5.86294 9.36059 5.98126 9.36059 6.10463Z" fill="#FFFFFF"/>
</svg>
